<?xml version="1.0" standalone="no"?>
<!DOCTYPE svg PUBLIC "-//W3C//DTD SVG 20010904//EN"
 "http://www.w3.org/TR/2001/REC-SVG-20010904/DTD/svg10.dtd">
<svg version="1.0" xmlns="http://www.w3.org/2000/svg"
 width="400.000000pt" height="400.000000pt" viewBox="0 0 400.000000 400.000000"
 preserveAspectRatio="xMidYMid meet">
<metadata>
Created by potrace 1.14, written by Peter Selinger 2001-2017
</metadata>
<g transform="translate(0.000000,400.000000) scale(0.100000,-0.100000)"
fill="#000000" stroke="none">
<path d="M0 2784 c0 -969 3 -1214 12 -1208 10 6 10 4 0 -8 -10 -13 -10 -17 3
-21 15 -6 39 25 28 37 -3 3 -1 6 5 6 7 0 12 -6 12 -12 0 -7 5 -5 11 5 5 9 7
23 3 30 -4 6 -4 9 1 5 4 -4 15 -2 23 5 9 6 13 7 9 1 -3 -6 0 -11 8 -11 8 0 17
9 21 19 3 10 10 18 16 18 5 0 8 -6 5 -13 -3 -8 -1 -20 5 -28 8 -11 9 -10 4 4
-3 9 -1 17 4 17 5 0 5 12 0 29 -6 21 -5 28 3 25 34 -13 1 -665 -43 -834 -35
-138 -58 -192 -106 -256 -24 -31 -24 -32 -24 -312 l0 -282 1034 0 1034 0 36
50 c20 27 37 63 38 80 1 16 5 30 9 30 7 0 25 171 22 200 -2 8 1 22 4 30 12 28
12 65 0 85 -9 14 -12 83 -11 250 1 127 4 241 7 255 3 14 8 66 12 116 l5 91
-27 2 c-64 4 -77 7 -80 18 -4 11 47 45 63 42 11 -1 24 25 24 49 0 17 6 22 24
22 13 0 46 18 72 40 27 22 54 40 61 40 8 0 21 4 31 9 27 15 55 24 77 26 11 1
28 6 38 10 16 7 18 3 15 -25 -4 -44 17 -49 147 -38 196 17 270 34 391 93 62
30 157 73 211 94 54 22 134 55 179 74 161 70 396 135 377 104 -3 -5 3 -6 16
-2 22 7 26 -1 13 -23 -5 -8 -16 -10 -28 -6 -24 9 -16 1 15 -16 13 -6 21 -8 17
-2 -3 5 5 10 19 10 13 0 24 -3 23 -7 -3 -25 5 -41 25 -47 12 -5 25 -7 30 -6 4
1 7 -4 7 -12 0 -21 21 -31 32 -15 7 12 8 11 6 -1 -3 -15 3 -20 22 -20 7 0 10
407 10 1200 l0 1200 -2000 0 -2000 0 0 -1216z m1613 329 c-3 -8 3 -13 17 -13
11 0 19 4 16 8 -3 5 9 6 26 4 19 -3 26 -7 17 -12 -7 -5 -19 -5 -28 -2 -14 5
-14 4 -1 -12 8 -11 16 -14 18 -7 3 8 9 8 23 1 15 -9 19 -7 19 7 0 11 3 14 8 8
7 -11 78 -35 101 -35 6 0 11 10 11 23 0 12 4 18 8 12 11 -16 82 -18 82 -3 0
10 3 10 9 -1 5 -8 7 -19 5 -25 -3 -8 17 -12 57 -13 34 -1 67 -7 73 -14 8 -9 8
-10 -3 -4 -9 5 -12 4 -7 -3 4 -7 17 -8 38 -1 18 5 34 5 37 1 4 -4 18 -8 34 -9
15 0 48 -1 73 -2 27 -1 43 -5 39 -11 -3 -5 -15 -10 -26 -10 -23 0 -37 -29 -20
-40 7 -4 53 -17 102 -29 111 -27 219 -76 329 -149 106 -70 239 -202 262 -260
9 -23 14 -42 12 -42 -2 0 -35 32 -72 71 -37 39 -92 90 -122 114 -54 41 -224
145 -237 145 -4 0 42 -33 102 -74 61 -41 136 -98 167 -125 55 -50 135 -148
126 -156 -2 -3 -20 17 -40 44 -46 61 -116 120 -253 213 -147 99 -212 130 -281
133 -65 3 -76 -10 -45 -54 12 -16 21 -32 21 -35 0 -3 18 -29 40 -58 58 -77 49
-80 -21 -7 -52 55 -55 57 -21 14 54 -67 102 -165 150 -306 52 -150 55 -179 22
-196 -16 -9 -41 -11 -67 -8 -35 5 -43 3 -43 -9 0 -9 -4 -16 -8 -16 -5 0 -13
-25 -19 -55 -9 -54 -9 -57 18 -80 18 -14 36 -21 48 -18 12 3 31 -4 47 -16 15
-12 39 -21 55 -21 15 0 31 -5 34 -11 4 -6 45 -10 103 -9 54 0 180 -2 282 -5
167 -5 183 -4 160 10 -14 8 -50 22 -80 31 -60 18 -165 60 -247 100 -36 17 -53
32 -53 44 0 10 -8 21 -18 24 -10 4 -31 19 -46 35 l-28 30 33 6 c19 3 99 16
179 29 133 21 146 22 158 7 7 -9 16 -16 20 -17 4 0 16 -5 28 -10 16 -7 19 -14
13 -34 -7 -25 -7 -25 -8 -2 -1 14 -5 20 -12 17 -6 -4 -8 -13 -5 -20 3 -8 2
-16 -2 -18 -4 -2 -1 -2 7 0 9 2 11 -3 7 -14 -6 -17 -5 -17 8 0 16 21 30 22 22
2 -3 -8 -4 -15 -2 -15 3 0 13 -3 23 -6 13 -4 15 -3 4 4 -9 7 -10 12 -2 16 6 4
11 2 11 -4 0 -6 4 -8 10 -5 6 4 7 -1 3 -11 -4 -11 -3 -15 4 -11 6 4 18 1 26
-7 20 -20 63 -30 72 -17 3 6 11 9 16 5 5 -3 7 -9 4 -14 -3 -4 3 -14 12 -21 14
-12 15 -11 10 11 -5 17 -2 15 8 -7 15 -33 30 -47 19 -18 -5 11 -2 13 10 9 9
-3 14 -10 11 -14 -3 -5 -1 -12 5 -15 6 -4 9 -3 8 2 -4 10 5 13 32 13 11 0 20
-4 20 -10 0 -5 -7 -10 -15 -10 -8 0 -15 -5 -15 -11 0 -6 9 -9 20 -6 11 3 23 0
27 -5 4 -7 1 -8 -7 -3 -9 5 -11 4 -6 -3 5 -9 13 -9 26 -2 16 9 18 8 13 -7 -5
-12 -2 -15 9 -11 11 5 15 0 14 -15 -1 -23 -1 -23 -86 -12 -27 3 -30 2 -15 -5
11 -5 33 -9 48 -9 34 -1 26 -21 -9 -21 -15 0 -24 -6 -24 -15 0 -12 -18 -15
-102 -14 -57 0 -133 3 -170 7 -36 5 -75 5 -85 1 -10 -4 -23 -3 -29 2 -18 14
-324 15 -364 1 -19 -7 -46 -28 -60 -47 -38 -52 -220 -122 -220 -85 0 6 11 10
25 10 27 0 28 3 19 37 -4 13 -11 20 -16 17 -6 -4 -40 -8 -75 -9 -64 -2 -65 -2
-79 29 -13 30 -13 30 -15 6 -5 -67 -3 -96 6 -102 6 -5 5 -8 -2 -8 -7 0 -13 -7
-13 -16 0 -8 4 -13 9 -10 4 3 0 -12 -11 -33 -10 -21 -20 -52 -23 -69 -4 -37
-13 -54 -24 -47 -15 9 -38 -29 -55 -87 -9 -32 -20 -59 -24 -59 -32 -7 -103 -5
-108 2 -8 14 -25 0 -18 -14 4 -7 3 -9 -1 -4 -5 4 -17 0 -27 -10 -18 -16 -24
-9 -19 21 1 4 -10 5 -24 2 -20 -5 -25 -4 -19 5 5 9 2 10 -11 5 -15 -5 -16 -4
-6 8 8 10 9 16 1 21 -5 3 -10 2 -10 -4 0 -6 -9 -15 -21 -21 -19 -11 -20 -10
-9 12 10 19 10 21 -1 11 -20 -20 -39 -15 -39 8 0 18 -3 19 -15 9 -8 -7 -22
-10 -30 -6 -13 4 -14 10 -5 26 7 12 7 20 1 20 -11 0 -26 -20 -26 -34 0 -5 -6
-11 -12 -13 -8 -3 -13 4 -13 16 0 12 -4 21 -9 21 -5 0 -11 10 -13 22 -3 21 -4
21 -20 4 -10 -10 -18 -14 -18 -9 0 4 -5 0 -11 -10 -5 -9 -7 -22 -4 -27 7 -11
5 -11 -41 -14 -30 -2 -31 0 -23 26 4 16 4 30 -2 34 -5 3 -9 2 -8 -3 3 -19 -2
-30 -15 -30 -12 0 -13 5 -4 21 9 17 8 19 -3 9 -18 -18 -32 -16 -26 2 7 18 -9
30 -19 14 -5 -8 -3 -9 6 -4 9 6 11 4 5 -4 -5 -9 -10 -10 -18 -2 -8 8 -21 1
-45 -26 -19 -21 -32 -30 -29 -21 3 9 -1 19 -9 22 -8 3 -13 2 -10 -2 3 -5 -1
-9 -8 -9 -8 0 -12 6 -9 14 6 16 -11 17 -40 2 -21 -11 -21 -10 2 15 25 27 48
36 35 14 -5 -10 -3 -10 7 0 12 11 12 14 -1 22 -8 6 -24 9 -35 7 -15 -1 -19 3
-17 18 2 11 -1 16 -5 10 -14 -17 -47 -41 -39 -27 4 7 1 12 -9 12 -8 0 -18 -7
-22 -16 -3 -8 -12 -13 -19 -10 -8 3 -11 0 -8 -9 4 -10 -2 -13 -23 -12 -15 2
-34 -3 -42 -11 -7 -7 -16 -10 -20 -7 -3 4 8 18 24 31 20 17 23 22 10 17 -18
-6 -19 -5 -5 12 14 17 14 17 -5 7 -11 -7 -31 -20 -44 -29 -24 -17 -24 -17 -12
5 10 19 9 21 -5 15 -11 -4 -15 -2 -11 4 5 7 -1 9 -15 5 -14 -3 -19 -1 -14 6 3
6 -3 14 -15 17 -19 6 -20 8 -3 26 24 26 6 24 -23 -3 -13 -12 -23 -16 -23 -10
0 7 4 12 8 12 5 0 9 7 9 14 0 12 -7 11 -29 -5 -26 -19 -33 -18 -29 4 1 5 -3 6
-9 2 -6 -3 -8 -10 -5 -15 5 -8 -25 -24 -32 -16 -9 8 18 46 32 46 8 0 15 4 15
10 0 19 -45 -8 -67 -40 l-23 -33 0 27 c0 15 -7 34 -15 42 -12 13 -17 9 -40
-33 -14 -26 -23 -39 -19 -28 10 30 10 49 -1 55 -5 3 -11 -5 -13 -18 -2 -12
-12 -27 -22 -32 -18 -10 -18 -9 -5 25 19 45 19 52 -3 32 -9 -9 -29 -18 -44
-21 -43 -7 -32 30 27 89 65 64 85 80 159 123 34 19 77 49 97 66 50 42 118 82
154 90 17 4 51 29 77 56 52 54 56 56 178 65 99 7 172 23 164 37 -3 5 0 8 7 7
40 -6 119 34 119 59 0 16 -32 52 -46 52 -8 0 -14 5 -14 10 0 6 4 10 9 10 11 0
3 97 -11 124 -16 32 -50 66 -65 66 -8 0 -11 5 -7 12 4 6 3 8 -4 5 -15 -10 -43
3 -40 18 5 21 -54 92 -95 115 -43 24 -158 32 -165 11 -2 -7 3 -9 14 -4 12 4
15 3 10 -5 -5 -8 1 -12 17 -12 14 0 29 -6 35 -12 24 -32 34 -156 16 -213 -7
-22 -15 -62 -17 -90 -4 -55 -19 -99 -37 -110 -9 -6 -9 -2 -1 14 15 27 1 27
-23 0 -15 -18 -20 -19 -27 -8 -6 10 -9 10 -9 2 0 -7 -8 -13 -17 -14 -15 0 -15
-2 2 -9 19 -8 19 -9 1 -9 -10 -1 -25 -9 -33 -18 -9 -12 -12 -13 -8 -3 4 8 -2
5 -12 -7 -10 -12 -36 -26 -59 -32 -22 -6 -51 -22 -64 -36 -12 -13 -26 -22 -31
-20 -4 3 -10 1 -14 -5 -3 -5 -1 -10 4 -10 23 0 10 -16 -15 -18 -14 -1 -23 2
-19 8 3 6 -1 10 -10 10 -8 0 -18 -7 -21 -15 -4 -8 -12 -15 -19 -15 -7 0 -16
-6 -19 -12 -3 -7 -4 -2 -3 12 1 14 7 28 12 32 6 5 4 8 -4 8 -11 0 -9 4 5 15
26 19 4 19 -24 -1 -32 -22 -27 -1 10 43 32 38 32 38 3 12 -17 -15 -40 -26 -53
-24 -16 1 -28 -8 -43 -32 -17 -27 -24 -31 -35 -22 -18 15 -18 20 1 13 8 -4 15
-2 15 4 0 6 -8 9 -17 8 -11 -2 -24 -21 -34 -51 -9 -27 -24 -54 -33 -61 -12 -8
-15 -21 -11 -40 3 -16 2 -22 -2 -14 -10 19 -34 24 -27 6 3 -8 1 -17 -4 -20 -6
-4 -9 7 -8 26 4 48 4 48 24 48 11 0 24 11 30 25 14 31 16 57 2 35 -15 -24 -20
-6 -5 20 8 14 24 45 35 69 11 24 34 59 50 78 19 21 30 45 30 63 0 69 56 149
93 134 8 -3 18 0 22 6 4 6 1 11 -6 9 -35 -4 -43 2 -19 17 23 14 23 14 3 9 -41
-11 -15 23 30 40 38 14 39 15 10 10 -18 -2 -33 0 -33 5 0 6 4 10 8 10 5 0 39
36 77 80 65 77 168 158 245 192 110 51 211 61 420 45 52 -4 89 -4 82 1 -7 5
-10 16 -6 25 5 13 1 17 -16 17 -16 0 -20 -4 -16 -15 4 -11 -1 -15 -19 -15 -23
0 -30 10 -25 35 1 6 -2 7 -6 3 -4 -4 -13 0 -19 9 -11 15 -15 15 -30 3 -14 -12
-19 -10 -41 13 -26 29 -27 28 36 31 19 1 29 -3 26 -11 -9 -23 8 -22 31 3 45
49 24 61 -117 63 -135 3 -336 -28 -459 -70 -159 -54 -352 -173 -470 -291 -26
-26 -53 -48 -60 -48 -17 0 -13 37 5 44 10 4 14 12 10 22 -5 13 -2 15 14 11 14
-4 26 3 40 23 24 34 26 52 3 43 -14 -5 -13 -3 3 14 10 11 22 18 27 16 4 -2 7
3 7 11 0 22 20 20 21 -1 0 -15 2 -15 9 2 12 29 12 33 -4 37 -12 3 -12 5 0 16
12 11 14 10 14 -3 0 -10 5 -13 12 -9 7 4 8 3 4 -4 -4 -7 -2 -12 3 -12 6 0 11
8 11 18 0 13 2 14 9 4 6 -10 11 -5 19 18 7 17 16 29 22 25 5 -3 13 0 16 9 3 8
12 12 20 9 9 -3 14 2 14 13 0 16 2 17 10 4 8 -13 10 -13 10 2 0 11 5 15 15 12
13 -6 20 6 16 29 -2 11 13 9 26 -4 8 -8 17 -5 32 10 11 11 23 16 26 11 11 -18
26 -10 36 20 12 33 29 40 29 13 0 -11 3 -14 8 -7 14 22 50 33 101 30 29 -1 55
2 58 7 3 5 13 7 23 4 12 -3 17 0 14 8 -3 7 -1 16 5 20 6 3 11 2 11 -4 0 -13
129 -5 166 11 16 6 34 12 39 13 6 0 16 4 24 9 9 6 12 5 8 -1 -4 -6 2 -13 13
-16 12 -3 18 -1 14 5 -4 6 2 6 14 -1 16 -9 24 -7 38 6 13 14 18 15 22 5 3 -10
8 -8 19 5 8 10 12 13 9 7 -3 -7 4 -11 19 -11 19 0 23 3 15 12 -8 9 -3 12 19
11 18 -1 27 -5 24 -13z m197 -32 c24 -11 24 -11 -5 -6 -16 4 -34 10 -39 15
-11 11 11 7 44 -9z m608 -68 c-21 -2 -57 -2 -80 0 -24 2 -7 4 37 4 44 0 63 -2
43 -4z m99 1 c-3 -3 -12 -4 -19 -1 -8 3 -5 6 6 6 11 1 17 -2 13 -5z m143 -4
c33 -6 22 -7 -40 -3 -47 3 -87 7 -89 9 -8 7 83 3 129 -6z m-1756 -16 c3 -8 2
-12 -4 -9 -6 3 -10 10 -10 16 0 14 7 11 14 -7z m-44 -4 c0 -5 -5 -10 -11 -10
-5 0 -7 5 -4 10 3 6 8 10 11 10 2 0 4 -4 4 -10z m1920 0 c11 -7 5 -8 -20 -4
-43 8 -51 14 -19 14 13 0 31 -5 39 -10z m98 -15 c190 -45 558 -251 755 -422
78 -68 152 -152 142 -161 -3 -3 -6 -3 -8 -1 -10 16 -138 149 -164 169 -180
143 -348 249 -484 308 -24 11 -69 31 -100 45 -31 15 -76 31 -100 36 -50 11
-129 39 -114 40 6 0 38 -6 73 -14z m-1438 -15 c0 -5 -5 -10 -11 -10 -5 0 -7 5
-4 10 3 6 8 10 11 10 2 0 4 -4 4 -10z m-700 -30 c0 -5 -5 -10 -11 -10 -5 0 -7
5 -4 10 3 6 8 10 11 10 2 0 4 -4 4 -10z m770 -30 c13 -9 13 -10 0 -10 -8 0
-22 5 -30 10 -13 9 -13 10 0 10 8 0 22 -5 30 -10z m-138 -276 c39 -27 53 -50
38 -59 -6 -4 -10 2 -11 12 0 10 -3 13 -5 6 -4 -8 -15 -6 -40 9 -19 11 -34 17
-34 14 0 -3 -11 4 -25 16 -53 46 9 48 77 2z m-929 -64 c-33 -47 -43 -50 -37
-12 5 28 28 52 52 52 9 0 4 -13 -15 -40z m-55 -67 c-15 -18 -21 -9 -13 18 6
16 9 18 16 8 4 -8 3 -19 -3 -26z m-40 -58 c-2 -5 -8 -10 -15 -11 -6 -1 -9 4
-6 12 6 16 27 15 21 -1z m939 -57 c-2 -13 -4 -5 -4 17 -1 22 1 32 4 23 2 -10
2 -28 0 -40z m-954 10 c-6 -7 -18 -34 -28 -60 -10 -27 -22 -48 -27 -48 -5 0
-7 3 -5 8 7 13 20 47 23 59 3 16 38 62 43 57 2 -2 -1 -9 -6 -16z m968 -75 c13
-16 12 -17 -3 -4 -10 7 -18 15 -18 17 0 8 8 3 21 -13z m239 -1 c0 -25 -167
-43 -199 -23 -8 5 11 7 50 4 45 -4 74 -1 99 10 42 18 50 20 50 9z m25 -40
c-16 -2 -37 -10 -45 -17 -14 -13 -53 -4 -40 9 11 10 76 22 95 17 16 -5 14 -7
-10 -9z m-1300 -47 c-8 -22 -14 -48 -15 -57 0 -9 -4 -19 -9 -22 -12 -8 -9 47
3 56 6 4 4 13 -4 23 -7 9 -9 15 -4 13 5 -2 10 1 11 6 1 9 25 27 30 23 1 -2 -4
-21 -12 -42z m2925 -79 c0 -2 -7 -7 -16 -10 -8 -3 -12 -2 -9 4 6 10 25 14 25
6z m20 -16 c0 -5 -5 -10 -11 -10 -5 0 -7 5 -4 10 3 6 8 10 11 10 2 0 4 -4 4
-10z m-2442 -23 c2 -10 -3 -17 -12 -17 -10 0 -16 9 -16 21 0 24 23 21 28 -4z
m22 -36 c-14 -28 -12 -41 6 -41 10 0 14 -6 11 -14 -3 -8 -1 -16 5 -18 6 -2 3
-10 -6 -17 -14 -12 -16 -12 -11 2 4 8 2 18 -4 22 -6 3 -11 1 -11 -5 0 -6 -11
-15 -24 -21 -14 -7 -22 -17 -19 -25 3 -8 1 -14 -4 -14 -22 0 -9 38 18 54 34
20 38 36 9 36 -26 0 -25 8 2 37 26 28 43 30 28 4z m-110 5 c0 -3 -4 -8 -10
-11 -5 -3 -10 -1 -10 4 0 6 5 11 10 11 6 0 10 -2 10 -4z m61 -20 c-7 -8 -10
-20 -7 -25 4 -5 2 -12 -4 -16 -6 -4 -8 -11 -5 -16 4 -5 1 -9 -6 -9 -7 0 -24
-10 -38 -22 -14 -13 -19 -15 -12 -5 12 15 12 17 -3 11 -9 -3 -16 -9 -16 -13 0
-4 -7 -16 -15 -27 -14 -17 -14 -17 -3 11 6 17 16 35 21 42 5 7 6 17 3 22 -4 6
3 8 15 6 18 -4 20 -2 11 7 -10 10 -4 17 25 35 39 24 54 23 34 -1z m174 -16
c-3 -5 -14 -10 -23 -9 -14 0 -13 2 3 9 27 11 27 11 20 0z m-710 -30 c3 -5 1
-10 -4 -10 -6 0 -11 5 -11 10 0 6 2 10 4 10 3 0 8 -4 11 -10z m2 -57 c-3 -10
-5 -4 -5 12 0 17 2 24 5 18 2 -7 2 -21 0 -30z m2438 27 c3 -6 -1 -7 -9 -4 -18
7 -21 14 -7 14 6 0 13 -4 16 -10z m835 4 c0 -8 -19 -13 -24 -6 -3 5 1 9 9 9 8
0 15 -2 15 -3z m-3 -54 c-3 -11 -2 -20 3 -20 4 0 22 -3 39 -6 27 -6 30 -4 25
11 -6 15 -1 16 52 10 96 -11 130 -23 167 -60 29 -29 32 -36 20 -47 -11 -8 -16
-9 -21 0 -11 16 -58 32 -97 32 -19 0 -36 4 -39 9 -6 9 -62 21 -100 22 -11 0
-32 9 -47 19 -31 23 -50 26 -46 8 1 -7 -8 -14 -20 -16 -31 -5 -29 12 2 26 14
6 25 16 25 22 0 5 10 10 21 10 16 0 20 -5 16 -20z m-3280 -22 c-3 -8 -6 -5 -6
6 -1 11 2 17 5 13 3 -3 4 -12 1 -19z m3623 -98 c0 -5 -4 -10 -9 -10 -6 0 -13
5 -16 10 -3 6 1 10 9 10 9 0 16 -4 16 -10z m-1324 -24 c2 -11 1 -12 -3 -2 -2
9 -11 12 -20 9 -11 -4 -14 -3 -9 6 10 16 31 8 32 -13z m0 -42 c18 -14 18 -15
-6 -8 -31 8 -50 24 -29 24 8 0 24 -7 35 -16z m-46 -15 c0 -14 -17 -10 -23 5
-4 10 -1 13 9 9 7 -3 14 -9 14 -14z m-1847 -72 c7 3 9 2 4 -2 -4 -5 -17 -10
-29 -12 -18 -3 -19 -1 -7 13 8 10 15 12 17 5 2 -6 9 -8 15 -4z m1871 -9 c-5
-7 -2 -9 9 -5 12 4 15 0 15 -22 -1 -16 2 -33 6 -40 8 -12 4 -14 -18 -5 -8 3
-12 12 -10 19 3 7 -3 16 -14 19 -10 4 -19 13 -19 21 0 8 4 12 9 9 4 -3 8 0 8
5 0 6 5 11 11 11 5 0 7 -5 3 -12z m-1644 -19 c0 -5 -4 -9 -10 -9 -5 0 -10 7
-10 16 0 8 5 12 10 9 6 -3 10 -10 10 -16z m-790 -23 c0 -3 -4 -8 -10 -11 -5
-3 -10 -1 -10 4 0 6 5 11 10 11 6 0 10 -2 10 -4z m1154 -71 c-4 -8 -11 -15
-16 -15 -6 0 -5 6 2 15 7 8 14 15 16 15 2 0 1 -7 -2 -15z m526 -61 c0 -8 -19
-13 -24 -6 -3 5 1 9 9 9 8 0 15 -2 15 -3z m290 -64 c0 -5 -9 -14 -20 -20 -22
-12 -27 -1 -8 18 14 14 28 16 28 2z m57 -242 c-15 -9 -19 -4 -11 16 5 14 9 15
15 5 5 -8 3 -17 -4 -21z m-334 -45 c-5 -12 -3 -14 8 -8 11 7 12 6 3 -6 -6 -8
-16 -27 -23 -44 -7 -18 -10 -21 -7 -7 3 14 -1 22 -10 22 -8 0 -14 6 -15 13 0
6 -4 2 -9 -10 -6 -15 -15 -21 -25 -17 -17 7 -17 10 -9 40 6 24 54 31 54 8 0
-8 5 -14 12 -14 6 0 8 3 5 7 -4 3 -2 12 4 20 15 18 20 16 12 -4z m100 -3 c3
-11 1 -20 -4 -20 -5 0 -9 9 -9 20 0 11 2 20 4 20 2 0 6 -9 9 -20z m51 4 c20
-20 21 -30 1 -14 -11 9 -15 9 -15 1 0 -7 -4 -9 -10 -6 -13 8 -13 35 -1 35 5 0
17 -7 25 -16z m57 -1 c12 -16 12 -17 -2 -6 -9 7 -19 10 -22 6 -4 -3 -7 -1 -7
5 0 17 16 15 31 -5z m-967 -2 c3 -5 0 -11 -7 -14 -8 -3 -14 1 -14 9 0 16 13
19 21 5z m806 -10 c0 -11 -4 -23 -10 -26 -6 -4 -10 5 -10 19 0 14 5 26 10 26
6 0 10 -9 10 -19z m-763 -13 c-3 -8 -6 -5 -6 6 -1 11 2 17 5 13 3 -3 4 -12 1
-19z m30 7 c0 -8 -4 -15 -9 -15 -4 0 -8 7 -8 15 0 8 4 15 8 15 5 0 9 -7 9 -15z
m76 -5 c-6 -24 -19 -34 -27 -21 -4 5 1 17 10 25 20 21 23 20 17 -4z m510 -17
c5 -27 2 -42 -9 -53 -13 -13 -16 -13 -24 0 -14 22 -12 34 3 21 23 -19 28 1 5
20 -17 15 -18 21 -8 34 19 23 27 18 33 -22z m-553 7 c0 -11 -4 -20 -10 -20 -5
0 -10 9 -10 20 0 11 5 20 10 20 6 0 10 -9 10 -20z m441 11 c25 16 49 10 49
-11 0 -11 -4 -20 -10 -20 -5 0 -10 -5 -10 -11 0 -5 5 -7 10 -4 6 3 10 -5 10
-18 0 -30 -9 -33 -82 -32 -32 0 -58 -4 -58 -9 0 -6 -5 -5 -12 2 -7 7 -22 12
-35 12 -13 0 -23 5 -23 11 0 8 -4 8 -13 1 -8 -7 -18 -7 -27 -2 -9 5 -19 5 -27
-2 -10 -8 -15 -4 -22 13 -5 13 -10 20 -10 16 -2 -15 -41 14 -41 30 0 9 2 14 6
11 3 -3 21 -2 40 2 19 4 34 4 34 -1 0 -5 7 -9 15 -9 8 0 15 6 15 13 0 9 3 8 9
-2 5 -7 14 -10 20 -7 6 4 11 2 11 -5 0 -8 6 -6 18 4 20 19 37 23 27 7 -4 -7 3
-7 19 0 21 7 26 6 26 -5 0 -8 4 -15 9 -15 5 0 7 10 4 21 -5 19 -3 20 14 11 12
-7 25 -7 34 -1z m-341 -21 c0 -5 -5 -10 -11 -10 -5 0 -7 5 -4 10 3 6 8 10 11
10 2 0 4 -4 4 -10z"/>
<path d="M1858 3068 c-10 -6 -10 -8 2 -9 50 -6 69 -5 73 5 5 13 -56 17 -75 4z"/>
<path d="M1658 2983 c7 -3 16 -2 19 1 4 3 -2 6 -13 5 -11 0 -14 -3 -6 -6z"/>
<path d="M1687 2909 c7 -7 15 -10 18 -7 3 3 -2 9 -12 12 -14 6 -15 5 -6 -5z"/>
<path d="M1725 2890 c3 -5 11 -10 16 -10 6 0 7 5 4 10 -3 6 -11 10 -16 10 -6
0 -7 -4 -4 -10z"/>
<path d="M1990 2816 c0 -2 7 -7 16 -10 8 -3 12 -2 9 4 -6 10 -25 14 -25 6z"/>
<path d="M2110 2730 c8 -5 20 -10 25 -10 6 0 3 5 -5 10 -8 5 -19 10 -25 10 -5
0 -3 -5 5 -10z"/>
<path d="M2186 2668 c10 -14 21 -24 23 -22 3 3 -6 15 -18 27 l-24 22 19 -27z"/>
<path d="M1050 2660 c-8 -5 -10 -10 -5 -10 6 0 17 5 25 10 8 5 11 10 5 10 -5
0 -17 -5 -25 -10z"/>
<path d="M2220 2627 c0 -2 13 -20 30 -38 16 -19 30 -39 30 -45 0 -6 7 -17 15
-24 9 -7 13 -15 10 -18 -3 -3 0 -11 6 -19 6 -7 8 -13 5 -13 -4 0 0 -7 9 -16 9
-9 14 -23 11 -30 -3 -8 -1 -14 4 -14 6 0 10 -13 10 -30 0 -16 5 -30 10 -30 14
0 12 -27 -2 -33 -8 -3 -6 -6 5 -6 10 -1 17 -7 15 -15 -2 -8 -1 -14 2 -13 3 1
16 -8 30 -20 31 -30 47 -29 27 0 -8 12 -18 37 -21 54 -4 17 -14 37 -22 44 -8
6 -14 17 -14 24 0 17 -66 140 -104 194 -27 38 -56 63 -56 48z"/>
<path d="M1080 2570 c-9 -6 -10 -10 -3 -10 6 0 15 5 18 10 8 12 4 12 -15 0z"/>
<path d="M980 2555 c-24 -13 -24 -14 15 -10 22 1 47 3 55 4 13 1 13 2 0 11
-20 13 -40 12 -70 -5z"/>
<path d="M1025 2520 c-3 -6 1 -7 9 -4 18 7 21 14 7 14 -6 0 -13 -4 -16 -10z"/>
<path d="M951 2471 c-10 -19 -60 -44 -77 -39 -13 4 -72 -33 -79 -49 -4 -11 1
-11 23 1 45 26 96 43 115 40 11 -1 16 0 13 3 -3 4 -2 11 3 17 10 14 22 46 16
46 -2 0 -9 -8 -14 -19z"/>
<path d="M1066 2482 c-3 -5 1 -9 9 -9 8 0 12 4 9 9 -3 4 -7 8 -9 8 -2 0 -6 -4
-9 -8z"/>
<path d="M1025 2460 c-3 -5 -1 -10 4 -10 6 0 11 5 11 10 0 6 -2 10 -4 10 -3 0
-8 -4 -11 -10z"/>
<path d="M972 2443 c-10 -4 -10 -8 -2 -18 14 -16 40 -9 40 11 0 14 -14 17 -38
7z"/>
<path d="M853 2370 c-15 -16 -33 -30 -39 -30 -6 0 -19 -9 -29 -20 -16 -17 -10
-16 36 8 30 15 54 34 54 42 0 7 6 15 14 18 9 3 11 0 6 -8 -5 -9 -4 -11 4 -6
12 8 6 26 -9 26 -4 0 -21 -13 -37 -30z"/>
<path d="M806 2301 c-4 -5 1 -8 9 -7 21 3 31 16 12 16 -9 0 -18 -4 -21 -9z"/>
<path d="M755 2280 c-3 -5 1 -10 10 -10 9 0 13 5 10 10 -3 6 -8 10 -10 10 -2
0 -7 -4 -10 -10z"/>
<path d="M1100 2255 c-7 -9 -8 -15 -2 -15 5 0 12 7 16 15 3 8 4 15 2 15 -2 0
-9 -7 -16 -15z"/>
<path d="M830 2240 c0 -5 5 -10 11 -10 5 0 7 5 4 10 -3 6 -8 10 -11 10 -2 0
-4 -4 -4 -10z"/>
<path d="M807 2223 c-11 -11 -8 -20 7 -20 8 0 12 6 9 14 -6 15 -7 15 -16 6z"/>
<path d="M730 2205 c-10 -12 -10 -15 4 -15 9 0 16 7 16 15 0 8 -2 15 -4 15 -2
0 -9 -7 -16 -15z"/>
<path d="M2414 1846 c-10 -8 -17 -17 -14 -19 3 -3 16 3 30 13 29 22 14 27 -16
6z"/>
<path d="M2125 1619 c-4 -6 -5 -12 -2 -15 2 -3 7 2 10 11 7 17 1 20 -8 4z"/>
<path d="M1341 1604 c0 -11 3 -14 6 -6 3 7 2 16 -1 19 -3 4 -6 -2 -5 -13z"/>
<path d="M1370 1585 c-13 -14 -18 -25 -11 -25 16 0 61 30 61 41 0 17 -27 9
-50 -16z"/>
<path d="M1746 1541 c-4 -7 -5 -15 -2 -18 9 -9 19 4 14 18 -4 11 -6 11 -12 0z"/>
<path d="M1516 1513 c-6 -14 -5 -15 5 -6 7 7 10 15 7 18 -3 3 -9 -2 -12 -12z"/>
<path d="M3560 1899 c0 -6 6 -9 13 -6 6 2 20 0 30 -5 10 -5 28 -6 40 -2 22 7
22 8 -3 15 -39 11 -80 10 -80 -2z"/>
<path d="M0 1530 c0 -5 5 -10 11 -10 5 0 7 5 4 10 -3 6 -8 10 -11 10 -2 0 -4
-4 -4 -10z"/>
</g>
</svg>
